<mxfile host="app.diagrams.net" modified="2020-07-30T21:31:19.584Z" agent="5.0 (Macintosh; Intel Mac OS X 10_15_5) AppleWebKit/537.36 (KHTML, like Gecko) Chrome/84.0.4147.89 Safari/537.36" etag="QYJuY8JYGOKOJ8UUFpRH" version="13.5.5" type="github">
  <diagram id="0a8T4iQcuexew1nNz5_C" name="Page-1">
    <mxGraphModel dx="1573" dy="1020" grid="1" gridSize="10" guides="1" tooltips="1" connect="1" arrows="1" fold="1" page="1" pageScale="1" pageWidth="827" pageHeight="1169" math="0" shadow="0">
      <root>
        <mxCell id="0" />
        <mxCell id="1" parent="0" />
        <mxCell id="8KEyPWoNusPrJdkMMnKE-17" value="" style="shape=table;html=1;whiteSpace=wrap;startSize=0;container=1;collapsible=0;childLayout=tableLayout;" vertex="1" parent="1">
          <mxGeometry x="320" y="110" width="130" height="278" as="geometry" />
        </mxCell>
        <mxCell id="8KEyPWoNusPrJdkMMnKE-18" value="" style="shape=partialRectangle;html=1;whiteSpace=wrap;collapsible=0;dropTarget=0;pointerEvents=0;fillColor=none;top=0;left=0;bottom=0;right=0;points=[[0,0.5],[1,0.5]];portConstraint=eastwest;" vertex="1" parent="8KEyPWoNusPrJdkMMnKE-17">
          <mxGeometry width="130" height="70" as="geometry" />
        </mxCell>
        <mxCell id="8KEyPWoNusPrJdkMMnKE-19" value="application&lt;br&gt;&lt;br&gt;" style="shape=partialRectangle;html=1;whiteSpace=wrap;connectable=0;overflow=hidden;fillColor=none;top=0;left=0;bottom=0;right=0;" vertex="1" parent="8KEyPWoNusPrJdkMMnKE-18">
          <mxGeometry width="130" height="70" as="geometry" />
        </mxCell>
        <mxCell id="8KEyPWoNusPrJdkMMnKE-20" value="" style="shape=partialRectangle;html=1;whiteSpace=wrap;collapsible=0;dropTarget=0;pointerEvents=0;fillColor=none;top=0;left=0;bottom=0;right=0;points=[[0,0.5],[1,0.5]];portConstraint=eastwest;" vertex="1" parent="8KEyPWoNusPrJdkMMnKE-17">
          <mxGeometry y="70" width="130" height="52" as="geometry" />
        </mxCell>
        <mxCell id="8KEyPWoNusPrJdkMMnKE-21" value="transport" style="shape=partialRectangle;html=1;whiteSpace=wrap;connectable=0;overflow=hidden;fillColor=#f5f5f5;top=0;left=0;bottom=0;right=0;gradientColor=#b3b3b3;strokeColor=#666666;" vertex="1" parent="8KEyPWoNusPrJdkMMnKE-20">
          <mxGeometry width="130" height="52" as="geometry" />
        </mxCell>
        <mxCell id="8KEyPWoNusPrJdkMMnKE-22" value="" style="shape=partialRectangle;html=1;whiteSpace=wrap;collapsible=0;dropTarget=0;pointerEvents=0;fillColor=none;top=0;left=0;bottom=0;right=0;points=[[0,0.5],[1,0.5]];portConstraint=eastwest;" vertex="1" parent="8KEyPWoNusPrJdkMMnKE-17">
          <mxGeometry y="122" width="130" height="52" as="geometry" />
        </mxCell>
        <mxCell id="8KEyPWoNusPrJdkMMnKE-23" value="network" style="shape=partialRectangle;html=1;whiteSpace=wrap;connectable=0;overflow=hidden;fillColor=none;top=0;left=0;bottom=0;right=0;" vertex="1" parent="8KEyPWoNusPrJdkMMnKE-22">
          <mxGeometry width="130" height="52" as="geometry" />
        </mxCell>
        <mxCell id="8KEyPWoNusPrJdkMMnKE-24" value="" style="shape=partialRectangle;html=1;whiteSpace=wrap;collapsible=0;dropTarget=0;pointerEvents=0;fillColor=none;top=0;left=0;bottom=0;right=0;points=[[0,0.5],[1,0.5]];portConstraint=eastwest;" vertex="1" parent="8KEyPWoNusPrJdkMMnKE-17">
          <mxGeometry y="174" width="130" height="52" as="geometry" />
        </mxCell>
        <mxCell id="8KEyPWoNusPrJdkMMnKE-25" value="data link" style="shape=partialRectangle;html=1;whiteSpace=wrap;connectable=0;overflow=hidden;fillColor=none;top=0;left=0;bottom=0;right=0;" vertex="1" parent="8KEyPWoNusPrJdkMMnKE-24">
          <mxGeometry width="130" height="52" as="geometry" />
        </mxCell>
        <mxCell id="8KEyPWoNusPrJdkMMnKE-26" value="" style="shape=partialRectangle;html=1;whiteSpace=wrap;collapsible=0;dropTarget=0;pointerEvents=0;fillColor=none;top=0;left=0;bottom=0;right=0;points=[[0,0.5],[1,0.5]];portConstraint=eastwest;" vertex="1" parent="8KEyPWoNusPrJdkMMnKE-17">
          <mxGeometry y="226" width="130" height="52" as="geometry" />
        </mxCell>
        <mxCell id="8KEyPWoNusPrJdkMMnKE-27" value="physical" style="shape=partialRectangle;html=1;whiteSpace=wrap;connectable=0;overflow=hidden;fillColor=none;top=0;left=0;bottom=0;right=0;" vertex="1" parent="8KEyPWoNusPrJdkMMnKE-26">
          <mxGeometry width="130" height="52" as="geometry" />
        </mxCell>
        <mxCell id="8KEyPWoNusPrJdkMMnKE-38" value="" style="shape=table;html=1;whiteSpace=wrap;startSize=0;container=1;collapsible=0;childLayout=tableLayout;" vertex="1" parent="1">
          <mxGeometry x="570" y="223" width="130" height="278" as="geometry" />
        </mxCell>
        <mxCell id="8KEyPWoNusPrJdkMMnKE-39" value="" style="shape=partialRectangle;html=1;whiteSpace=wrap;collapsible=0;dropTarget=0;pointerEvents=0;fillColor=none;top=0;left=0;bottom=0;right=0;points=[[0,0.5],[1,0.5]];portConstraint=eastwest;" vertex="1" parent="8KEyPWoNusPrJdkMMnKE-38">
          <mxGeometry width="130" height="70" as="geometry" />
        </mxCell>
        <mxCell id="8KEyPWoNusPrJdkMMnKE-40" value="application&lt;br&gt;&lt;br&gt;" style="shape=partialRectangle;html=1;whiteSpace=wrap;connectable=0;overflow=hidden;fillColor=none;top=0;left=0;bottom=0;right=0;" vertex="1" parent="8KEyPWoNusPrJdkMMnKE-39">
          <mxGeometry width="130" height="70" as="geometry" />
        </mxCell>
        <mxCell id="8KEyPWoNusPrJdkMMnKE-41" value="" style="shape=partialRectangle;html=1;whiteSpace=wrap;collapsible=0;dropTarget=0;pointerEvents=0;fillColor=none;top=0;left=0;bottom=0;right=0;points=[[0,0.5],[1,0.5]];portConstraint=eastwest;" vertex="1" parent="8KEyPWoNusPrJdkMMnKE-38">
          <mxGeometry y="70" width="130" height="52" as="geometry" />
        </mxCell>
        <mxCell id="8KEyPWoNusPrJdkMMnKE-42" value="transport" style="shape=partialRectangle;html=1;whiteSpace=wrap;connectable=0;overflow=hidden;fillColor=#f5f5f5;top=0;left=0;bottom=0;right=0;gradientColor=#b3b3b3;strokeColor=#666666;" vertex="1" parent="8KEyPWoNusPrJdkMMnKE-41">
          <mxGeometry width="130" height="52" as="geometry" />
        </mxCell>
        <mxCell id="8KEyPWoNusPrJdkMMnKE-43" value="" style="shape=partialRectangle;html=1;whiteSpace=wrap;collapsible=0;dropTarget=0;pointerEvents=0;fillColor=none;top=0;left=0;bottom=0;right=0;points=[[0,0.5],[1,0.5]];portConstraint=eastwest;" vertex="1" parent="8KEyPWoNusPrJdkMMnKE-38">
          <mxGeometry y="122" width="130" height="52" as="geometry" />
        </mxCell>
        <mxCell id="8KEyPWoNusPrJdkMMnKE-44" value="network" style="shape=partialRectangle;html=1;whiteSpace=wrap;connectable=0;overflow=hidden;fillColor=none;top=0;left=0;bottom=0;right=0;" vertex="1" parent="8KEyPWoNusPrJdkMMnKE-43">
          <mxGeometry width="130" height="52" as="geometry" />
        </mxCell>
        <mxCell id="8KEyPWoNusPrJdkMMnKE-45" value="" style="shape=partialRectangle;html=1;whiteSpace=wrap;collapsible=0;dropTarget=0;pointerEvents=0;fillColor=none;top=0;left=0;bottom=0;right=0;points=[[0,0.5],[1,0.5]];portConstraint=eastwest;" vertex="1" parent="8KEyPWoNusPrJdkMMnKE-38">
          <mxGeometry y="174" width="130" height="52" as="geometry" />
        </mxCell>
        <mxCell id="8KEyPWoNusPrJdkMMnKE-46" value="data link" style="shape=partialRectangle;html=1;whiteSpace=wrap;connectable=0;overflow=hidden;fillColor=none;top=0;left=0;bottom=0;right=0;" vertex="1" parent="8KEyPWoNusPrJdkMMnKE-45">
          <mxGeometry width="130" height="52" as="geometry" />
        </mxCell>
        <mxCell id="8KEyPWoNusPrJdkMMnKE-47" value="" style="shape=partialRectangle;html=1;whiteSpace=wrap;collapsible=0;dropTarget=0;pointerEvents=0;fillColor=none;top=0;left=0;bottom=0;right=0;points=[[0,0.5],[1,0.5]];portConstraint=eastwest;" vertex="1" parent="8KEyPWoNusPrJdkMMnKE-38">
          <mxGeometry y="226" width="130" height="52" as="geometry" />
        </mxCell>
        <mxCell id="8KEyPWoNusPrJdkMMnKE-48" value="physical" style="shape=partialRectangle;html=1;whiteSpace=wrap;connectable=0;overflow=hidden;fillColor=none;top=0;left=0;bottom=0;right=0;" vertex="1" parent="8KEyPWoNusPrJdkMMnKE-47">
          <mxGeometry width="130" height="52" as="geometry" />
        </mxCell>
        <mxCell id="8KEyPWoNusPrJdkMMnKE-1" value="" style="shape=table;html=1;whiteSpace=wrap;startSize=0;container=1;collapsible=0;childLayout=tableLayout;" vertex="1" parent="1">
          <mxGeometry x="50" y="230" width="130" height="278" as="geometry" />
        </mxCell>
        <mxCell id="8KEyPWoNusPrJdkMMnKE-2" value="" style="shape=partialRectangle;html=1;whiteSpace=wrap;collapsible=0;dropTarget=0;pointerEvents=0;fillColor=none;top=0;left=0;bottom=0;right=0;points=[[0,0.5],[1,0.5]];portConstraint=eastwest;" vertex="1" parent="8KEyPWoNusPrJdkMMnKE-1">
          <mxGeometry width="130" height="70" as="geometry" />
        </mxCell>
        <mxCell id="8KEyPWoNusPrJdkMMnKE-3" value="application&lt;br&gt;&lt;br&gt;" style="shape=partialRectangle;html=1;whiteSpace=wrap;connectable=0;overflow=hidden;fillColor=none;top=0;left=0;bottom=0;right=0;" vertex="1" parent="8KEyPWoNusPrJdkMMnKE-2">
          <mxGeometry width="130" height="70" as="geometry" />
        </mxCell>
        <mxCell id="8KEyPWoNusPrJdkMMnKE-4" value="" style="shape=partialRectangle;html=1;whiteSpace=wrap;collapsible=0;dropTarget=0;pointerEvents=0;fillColor=none;top=0;left=0;bottom=0;right=0;points=[[0,0.5],[1,0.5]];portConstraint=eastwest;" vertex="1" parent="8KEyPWoNusPrJdkMMnKE-1">
          <mxGeometry y="70" width="130" height="52" as="geometry" />
        </mxCell>
        <mxCell id="8KEyPWoNusPrJdkMMnKE-5" value="transport" style="shape=partialRectangle;html=1;whiteSpace=wrap;connectable=0;overflow=hidden;fillColor=#f5f5f5;top=0;left=0;bottom=0;right=0;gradientColor=#b3b3b3;strokeColor=#666666;" vertex="1" parent="8KEyPWoNusPrJdkMMnKE-4">
          <mxGeometry width="130" height="52" as="geometry" />
        </mxCell>
        <mxCell id="8KEyPWoNusPrJdkMMnKE-6" value="" style="shape=partialRectangle;html=1;whiteSpace=wrap;collapsible=0;dropTarget=0;pointerEvents=0;fillColor=none;top=0;left=0;bottom=0;right=0;points=[[0,0.5],[1,0.5]];portConstraint=eastwest;" vertex="1" parent="8KEyPWoNusPrJdkMMnKE-1">
          <mxGeometry y="122" width="130" height="52" as="geometry" />
        </mxCell>
        <mxCell id="8KEyPWoNusPrJdkMMnKE-7" value="network" style="shape=partialRectangle;html=1;whiteSpace=wrap;connectable=0;overflow=hidden;fillColor=none;top=0;left=0;bottom=0;right=0;" vertex="1" parent="8KEyPWoNusPrJdkMMnKE-6">
          <mxGeometry width="130" height="52" as="geometry" />
        </mxCell>
        <mxCell id="8KEyPWoNusPrJdkMMnKE-8" value="" style="shape=partialRectangle;html=1;whiteSpace=wrap;collapsible=0;dropTarget=0;pointerEvents=0;fillColor=none;top=0;left=0;bottom=0;right=0;points=[[0,0.5],[1,0.5]];portConstraint=eastwest;" vertex="1" parent="8KEyPWoNusPrJdkMMnKE-1">
          <mxGeometry y="174" width="130" height="52" as="geometry" />
        </mxCell>
        <mxCell id="8KEyPWoNusPrJdkMMnKE-9" value="data link" style="shape=partialRectangle;html=1;whiteSpace=wrap;connectable=0;overflow=hidden;fillColor=none;top=0;left=0;bottom=0;right=0;" vertex="1" parent="8KEyPWoNusPrJdkMMnKE-8">
          <mxGeometry width="130" height="52" as="geometry" />
        </mxCell>
        <mxCell id="8KEyPWoNusPrJdkMMnKE-10" value="" style="shape=partialRectangle;html=1;whiteSpace=wrap;collapsible=0;dropTarget=0;pointerEvents=0;fillColor=none;top=0;left=0;bottom=0;right=0;points=[[0,0.5],[1,0.5]];portConstraint=eastwest;" vertex="1" parent="8KEyPWoNusPrJdkMMnKE-1">
          <mxGeometry y="226" width="130" height="52" as="geometry" />
        </mxCell>
        <mxCell id="8KEyPWoNusPrJdkMMnKE-11" value="physical" style="shape=partialRectangle;html=1;whiteSpace=wrap;connectable=0;overflow=hidden;fillColor=none;top=0;left=0;bottom=0;right=0;" vertex="1" parent="8KEyPWoNusPrJdkMMnKE-10">
          <mxGeometry width="130" height="52" as="geometry" />
        </mxCell>
        <mxCell id="8KEyPWoNusPrJdkMMnKE-12" value="P3" style="ellipse;whiteSpace=wrap;html=1;fillColor=#dae8fc;strokeColor=#6c8ebf;" vertex="1" parent="1">
          <mxGeometry x="95" y="270" width="40" height="20" as="geometry" />
        </mxCell>
        <mxCell id="8KEyPWoNusPrJdkMMnKE-13" value="" style="rounded=0;whiteSpace=wrap;html=1;fillColor=#fff2cc;strokeColor=#d6b656;" vertex="1" parent="1">
          <mxGeometry x="90" y="290" width="50" height="30" as="geometry" />
        </mxCell>
        <mxCell id="8KEyPWoNusPrJdkMMnKE-54" style="edgeStyle=orthogonalEdgeStyle;rounded=0;orthogonalLoop=1;jettySize=auto;html=1;entryX=0.5;entryY=1;entryDx=0;entryDy=0;" edge="1" parent="1" source="8KEyPWoNusPrJdkMMnKE-14" target="8KEyPWoNusPrJdkMMnKE-33">
          <mxGeometry relative="1" as="geometry">
            <Array as="points">
              <mxPoint x="115" y="670" />
              <mxPoint x="385" y="670" />
            </Array>
          </mxGeometry>
        </mxCell>
        <mxCell id="8KEyPWoNusPrJdkMMnKE-14" value="" style="rounded=0;whiteSpace=wrap;html=1;" vertex="1" parent="1">
          <mxGeometry x="105" y="295" width="20" height="20" as="geometry" />
        </mxCell>
        <mxCell id="8KEyPWoNusPrJdkMMnKE-16" value="&lt;font style=&quot;font-size: 16px&quot;&gt;DatagramSocket&lt;br&gt;mySocket2 = new DatagramSocket&lt;br&gt;(&lt;font color=&quot;#ff0000&quot;&gt;9157&lt;/font&gt;)&lt;/font&gt;" style="text;html=1;align=center;verticalAlign=middle;resizable=0;points=[];autosize=1;" vertex="1" parent="1">
          <mxGeometry x="-15" y="170" width="270" height="50" as="geometry" />
        </mxCell>
        <mxCell id="8KEyPWoNusPrJdkMMnKE-28" value="P3" style="ellipse;whiteSpace=wrap;html=1;fillColor=#dae8fc;strokeColor=#6c8ebf;" vertex="1" parent="1">
          <mxGeometry x="365" y="150" width="40" height="20" as="geometry" />
        </mxCell>
        <mxCell id="8KEyPWoNusPrJdkMMnKE-29" value="" style="rounded=0;whiteSpace=wrap;html=1;fillColor=#fff2cc;strokeColor=#d6b656;" vertex="1" parent="1">
          <mxGeometry x="360" y="170" width="50" height="30" as="geometry" />
        </mxCell>
        <mxCell id="8KEyPWoNusPrJdkMMnKE-30" value="" style="rounded=0;whiteSpace=wrap;html=1;" vertex="1" parent="1">
          <mxGeometry x="375" y="175" width="20" height="20" as="geometry" />
        </mxCell>
        <mxCell id="8KEyPWoNusPrJdkMMnKE-31" value="&lt;font style=&quot;font-size: 16px&quot;&gt;DatagramSocket&lt;br&gt;mySocket2 = new DatagramSocket&lt;br&gt;(&lt;font color=&quot;#ff0000&quot;&gt;6428&lt;/font&gt;)&lt;/font&gt;" style="text;html=1;align=center;verticalAlign=middle;resizable=0;points=[];autosize=1;" vertex="1" parent="1">
          <mxGeometry x="250" y="40" width="270" height="50" as="geometry" />
        </mxCell>
        <mxCell id="8KEyPWoNusPrJdkMMnKE-32" value="" style="rounded=0;whiteSpace=wrap;html=1;fillColor=#fff2cc;strokeColor=#d6b656;" vertex="1" parent="1">
          <mxGeometry x="360" y="170" width="50" height="30" as="geometry" />
        </mxCell>
        <mxCell id="8KEyPWoNusPrJdkMMnKE-53" style="edgeStyle=orthogonalEdgeStyle;rounded=0;orthogonalLoop=1;jettySize=auto;html=1;" edge="1" parent="1" source="8KEyPWoNusPrJdkMMnKE-33">
          <mxGeometry relative="1" as="geometry">
            <mxPoint x="120" y="315" as="targetPoint" />
            <Array as="points">
              <mxPoint x="380" y="660" />
              <mxPoint x="120" y="660" />
            </Array>
          </mxGeometry>
        </mxCell>
        <mxCell id="8KEyPWoNusPrJdkMMnKE-56" style="edgeStyle=orthogonalEdgeStyle;rounded=0;orthogonalLoop=1;jettySize=auto;html=1;" edge="1" parent="1" source="8KEyPWoNusPrJdkMMnKE-33">
          <mxGeometry relative="1" as="geometry">
            <mxPoint x="630" y="298" as="targetPoint" />
            <Array as="points">
              <mxPoint x="400" y="185" />
              <mxPoint x="400" y="660" />
              <mxPoint x="630" y="660" />
              <mxPoint x="630" y="303" />
            </Array>
          </mxGeometry>
        </mxCell>
        <mxCell id="8KEyPWoNusPrJdkMMnKE-33" value="" style="rounded=0;whiteSpace=wrap;html=1;" vertex="1" parent="1">
          <mxGeometry x="375" y="175" width="20" height="20" as="geometry" />
        </mxCell>
        <mxCell id="8KEyPWoNusPrJdkMMnKE-34" value="P3" style="ellipse;whiteSpace=wrap;html=1;fillColor=#dae8fc;strokeColor=#6c8ebf;" vertex="1" parent="1">
          <mxGeometry x="365" y="150" width="40" height="20" as="geometry" />
        </mxCell>
        <mxCell id="8KEyPWoNusPrJdkMMnKE-35" value="P3" style="ellipse;whiteSpace=wrap;html=1;fillColor=#dae8fc;strokeColor=#6c8ebf;" vertex="1" parent="1">
          <mxGeometry x="615" y="263" width="40" height="20" as="geometry" />
        </mxCell>
        <mxCell id="8KEyPWoNusPrJdkMMnKE-36" value="" style="rounded=0;whiteSpace=wrap;html=1;fillColor=#fff2cc;strokeColor=#d6b656;" vertex="1" parent="1">
          <mxGeometry x="610" y="283" width="50" height="30" as="geometry" />
        </mxCell>
        <mxCell id="8KEyPWoNusPrJdkMMnKE-37" value="" style="rounded=0;whiteSpace=wrap;html=1;" vertex="1" parent="1">
          <mxGeometry x="625" y="288" width="20" height="20" as="geometry" />
        </mxCell>
        <mxCell id="8KEyPWoNusPrJdkMMnKE-49" value="" style="rounded=0;whiteSpace=wrap;html=1;fillColor=#fff2cc;strokeColor=#d6b656;" vertex="1" parent="1">
          <mxGeometry x="610" y="283" width="50" height="30" as="geometry" />
        </mxCell>
        <mxCell id="8KEyPWoNusPrJdkMMnKE-55" style="edgeStyle=orthogonalEdgeStyle;rounded=0;orthogonalLoop=1;jettySize=auto;html=1;" edge="1" parent="1" source="8KEyPWoNusPrJdkMMnKE-50">
          <mxGeometry relative="1" as="geometry">
            <mxPoint x="390" y="195" as="targetPoint" />
            <Array as="points">
              <mxPoint x="635" y="670" />
              <mxPoint x="390" y="670" />
              <mxPoint x="390" y="195" />
            </Array>
          </mxGeometry>
        </mxCell>
        <mxCell id="8KEyPWoNusPrJdkMMnKE-50" value="" style="rounded=0;whiteSpace=wrap;html=1;" vertex="1" parent="1">
          <mxGeometry x="625" y="288" width="20" height="20" as="geometry" />
        </mxCell>
        <mxCell id="8KEyPWoNusPrJdkMMnKE-51" value="P3" style="ellipse;whiteSpace=wrap;html=1;fillColor=#dae8fc;strokeColor=#6c8ebf;" vertex="1" parent="1">
          <mxGeometry x="615" y="263" width="40" height="20" as="geometry" />
        </mxCell>
        <mxCell id="8KEyPWoNusPrJdkMMnKE-52" value="&lt;font style=&quot;font-size: 16px&quot;&gt;DatagramSocket&lt;br&gt;mySocket2 = new DatagramSocket&lt;br&gt;(&lt;font color=&quot;#ff0000&quot;&gt;5775&lt;/font&gt;)&lt;/font&gt;" style="text;html=1;align=center;verticalAlign=middle;resizable=0;points=[];autosize=1;" vertex="1" parent="1">
          <mxGeometry x="500" y="145" width="270" height="50" as="geometry" />
        </mxCell>
        <mxCell id="8KEyPWoNusPrJdkMMnKE-57" value="" style="whiteSpace=wrap;html=1;fillColor=#e1d5e7;strokeColor=#9673a6;" vertex="1" parent="1">
          <mxGeometry x="140" y="610" width="60" height="30" as="geometry" />
        </mxCell>
        <mxCell id="8KEyPWoNusPrJdkMMnKE-58" value="Source: 6428" style="text;html=1;align=center;verticalAlign=middle;resizable=0;points=[];autosize=1;" vertex="1" parent="1">
          <mxGeometry x="200" y="600" width="90" height="20" as="geometry" />
        </mxCell>
        <mxCell id="8KEyPWoNusPrJdkMMnKE-59" value="dest: 9157" style="text;html=1;align=center;verticalAlign=middle;resizable=0;points=[];autosize=1;" vertex="1" parent="1">
          <mxGeometry x="200" y="620" width="70" height="20" as="geometry" />
        </mxCell>
        <mxCell id="8KEyPWoNusPrJdkMMnKE-60" value="" style="whiteSpace=wrap;html=1;fillColor=#e1d5e7;strokeColor=#9673a6;" vertex="1" parent="1">
          <mxGeometry x="215" y="690" width="60" height="30" as="geometry" />
        </mxCell>
        <mxCell id="8KEyPWoNusPrJdkMMnKE-61" value="Source: 9157" style="text;html=1;align=center;verticalAlign=middle;resizable=0;points=[];autosize=1;" vertex="1" parent="1">
          <mxGeometry x="275" y="680" width="90" height="20" as="geometry" />
        </mxCell>
        <mxCell id="8KEyPWoNusPrJdkMMnKE-62" value="dest: 6428" style="text;html=1;align=center;verticalAlign=middle;resizable=0;points=[];autosize=1;" vertex="1" parent="1">
          <mxGeometry x="275" y="700" width="70" height="20" as="geometry" />
        </mxCell>
        <mxCell id="8KEyPWoNusPrJdkMMnKE-63" value="" style="whiteSpace=wrap;html=1;fillColor=#e1d5e7;strokeColor=#9673a6;" vertex="1" parent="1">
          <mxGeometry x="450" y="690" width="60" height="30" as="geometry" />
        </mxCell>
        <mxCell id="8KEyPWoNusPrJdkMMnKE-64" value="Source: 5775" style="text;html=1;align=center;verticalAlign=middle;resizable=0;points=[];autosize=1;" vertex="1" parent="1">
          <mxGeometry x="510" y="680" width="90" height="20" as="geometry" />
        </mxCell>
        <mxCell id="8KEyPWoNusPrJdkMMnKE-65" value="dest: 6428" style="text;html=1;align=center;verticalAlign=middle;resizable=0;points=[];autosize=1;" vertex="1" parent="1">
          <mxGeometry x="510" y="700" width="70" height="20" as="geometry" />
        </mxCell>
        <mxCell id="8KEyPWoNusPrJdkMMnKE-66" value="" style="whiteSpace=wrap;html=1;fillColor=#e1d5e7;strokeColor=#9673a6;" vertex="1" parent="1">
          <mxGeometry x="450" y="600" width="60" height="30" as="geometry" />
        </mxCell>
        <mxCell id="8KEyPWoNusPrJdkMMnKE-67" value="Source: 6428" style="text;html=1;align=center;verticalAlign=middle;resizable=0;points=[];autosize=1;" vertex="1" parent="1">
          <mxGeometry x="510" y="590" width="90" height="20" as="geometry" />
        </mxCell>
        <mxCell id="8KEyPWoNusPrJdkMMnKE-68" value="dest: 5775" style="text;html=1;align=center;verticalAlign=middle;resizable=0;points=[];autosize=1;" vertex="1" parent="1">
          <mxGeometry x="510" y="610" width="70" height="20" as="geometry" />
        </mxCell>
      </root>
    </mxGraphModel>
  </diagram>
</mxfile>
